<svg xmlns="http://www.w3.org/2000/svg" xmlns:xlink="http://www.w3.org/1999/xlink" viewBox="0 0 596.27 842.89"><defs><style>.cls-1{fill:none;}.cls-2{isolation:isolate;}.cls-3{clip-path:url(#clip-path);}.cls-4{stroke:#231f20;stroke-miterlimit:10;stroke-width:1px;fill:url(#linear-gradient);}.cls-5{mix-blend-mode:screen;opacity:0.39;fill:url(#linear-gradient-2);}.cls-6{fill:url(#linear-gradient-3);}</style><clipPath id="clip-path" transform="translate(0.5 0.5)"><path class="cls-1" d="M389,0C179,137.08,80,318.16,126.19,423.1c14.14,32.12,47.85,70.64,92.54,90.19C310.47,553.43,369,478.82,484,519c41,14.34,111.28,51,111.28,51h0V0Z"/></clipPath><linearGradient id="linear-gradient" x1="0.5" y1="421.44" x2="595.77" y2="421.44" gradientUnits="userSpaceOnUse"><stop offset="0" stop-color="#0068ff"/><stop offset="0.28" stop-color="#355ed3"/><stop offset="0.74" stop-color="#5c0fd6"/><stop offset="1" stop-color="#cb15e5"/></linearGradient><linearGradient id="linear-gradient-2" x1="0" y1="502.94" x2="595.28" y2="502.94" xlink:href="#linear-gradient"/><linearGradient id="linear-gradient-3" x1="191.5" y1="183.5" x2="523.5" y2="183.5" xlink:href="#linear-gradient"/></defs><g class="cls-2"><g id="Layer_2" data-name="Layer 2"><g class="cls-3"><rect class="cls-4" x="0.5" y="0.5" width="595.28" height="841.89"/><path class="cls-5" d="M0,164s246,27,393,214c0,0,90.55,117,202.28,31V841.89H0Z" transform="translate(0.5 0.5)"/><circle class="cls-6" cx="357.5" cy="183.5" r="166"/></g></g></g></svg>