<svg id="visual" viewBox="0 0 900 600" width="900" height="600" xmlns="http://www.w3.org/2000/svg" xmlns:xlink="http://www.w3.org/1999/xlink" version="1.1"><path d="M837 600L752.5 580C668 560 499 520 396.8 480C294.7 440 259.3 400 334.2 360C409 320 594 280 704.7 240C815.3 200 851.7 160 869.8 120C888 80 888 40 888 20L888 0L900 0L900 20C900 40 900 80 900 120C900 160 900 200 900 240C900 280 900 320 900 360C900 400 900 440 900 480C900 520 900 560 900 580L900 600Z" fill="#0066FF" stroke-linecap="round" stroke-linejoin="miter"></path></svg>